<svg xmlns="http://www.w3.org/2000/svg" width="600" height="400" viewBox="0 0 600 400"><rect width="100%" height="100%" fill="#DDDDDD"/><path fill="#999999" d="M128.85 188.19h3.93v12.01q0 2.06-.92 3.6-.92 1.55-2.66 2.38-1.74.82-4.12.82-3.58 0-5.56-1.83-1.98-1.84-1.98-5.02v-11.96h3.92v11.36q0 2.15.87 3.15.86 1 2.85 1 1.93 0 2.8-1.01.87-1.01.87-3.16v-11.34Zm21.27 9.31v9.25h-3.87v-8.29q0-1.54-.55-2.3-.55-.77-1.74-.77-1.62 0-2.35 1.08-.72 1.09-.72 3.6v6.68h-3.87v-14.19h2.95l.53 1.81h.21q.65-1.03 1.78-1.55 1.14-.53 2.59-.53 2.47 0 3.76 1.34 1.28 1.34 1.28 3.87Zm19.87 9.25h-4.22l-1.09-4.96-1.47-6.28h-.09l-2.59 11.24h-4.17l-4.03-14.19h3.86l1.63 6.28q.4 1.69.8 4.66h.08q.05-.96.44-3.06l.21-1.08 1.75-6.8h4.27l1.66 6.8q.05.28.16.83.11.54.21 1.16.1.61.18 1.2.08.59.1.95h.07q.12-.91.41-2.51.29-1.59.42-2.15l1.7-6.28h3.79l-4.08 14.19Zm14.29-14.46q.79 0 1.31.11l-.29 3.64q-.47-.13-1.15-.13-1.85 0-2.88.95-1.04.95-1.04 2.67v7.22h-3.87v-14.19h2.93l.57 2.38h.19q.66-1.19 1.79-1.92 1.12-.73 2.44-.73Zm15.6 14.46h-2.7l-.75-1.93h-.1q-.98 1.23-2.01 1.71-1.04.47-2.7.47-2.04 0-3.22-1.16-1.17-1.17-1.17-3.33 0-2.26 1.58-3.33 1.58-1.08 4.76-1.19l2.47-.08v-.62q0-2.16-2.21-2.16-1.7 0-4 1.03l-1.28-2.61q2.45-1.29 5.43-1.29 2.86 0 4.38 1.25 1.52 1.24 1.52 3.78v9.46Zm-3.84-5.41v-1.17l-1.5.05q-1.69.06-2.51.61-.83.56-.83 1.71 0 1.63 1.88 1.63 1.34 0 2.15-.77.81-.78.81-2.06Zm15.63 5.66q-2.51 0-3.93-1.81h-.2q.2 1.78.2 2.06V213h-3.87v-20.44h3.15l.54 1.84h.18q1.36-2.11 4.03-2.11 2.51 0 3.93 1.94 1.42 1.94 1.42 5.4 0 2.27-.66 3.95-.67 1.67-1.9 2.55-1.23.87-2.89.87Zm-1.15-11.61q-1.43 0-2.09.88-.66.88-.69 2.91v.42q0 2.29.68 3.28.68.99 2.15.99 2.61 0 2.61-4.29 0-2.1-.65-3.14-.64-1.05-2.01-1.05Zm18.79-7.2 3.85 7.64 3.87-7.64h4.24l-6.16 11.34v7.22h-3.91v-7.1l-6.15-11.46h4.26Zm17.08 11.44q0 2.11.69 3.18.69 1.08 2.25 1.08 1.55 0 2.23-1.07.68-1.07.68-3.19 0-2.11-.69-3.16-.68-1.06-2.24-1.06-1.55 0-2.24 1.05-.68 1.05-.68 3.17Zm9.81 0q0 3.46-1.83 5.42-1.83 1.95-5.09 1.95-2.04 0-3.6-.89-1.57-.9-2.4-2.57-.84-1.68-.84-3.91 0-3.48 1.81-5.41 1.82-1.93 5.11-1.93 2.04 0 3.6.89t2.4 2.55q.84 1.66.84 3.9Zm16.22 7.12h-2.97l-.52-1.82h-.2q-.62.99-1.76 1.53-1.15.54-2.61.54-2.5 0-3.77-1.34-1.27-1.33-1.27-3.85v-9.25h3.88v8.29q0 1.53.54 2.3.55.77 1.74.77 1.63 0 2.35-1.09.72-1.08.72-3.6v-6.67h3.87v14.19Zm11.99-14.46q.79 0 1.31.11l-.3 3.64q-.46-.13-1.14-.13-1.85 0-2.89.95-1.03.95-1.03 2.67v7.22h-3.87v-14.19h2.93l.57 2.38h.19q.66-1.19 1.79-1.92 1.12-.73 2.44-.73Zm21.9 9.31q0 2.51-1.81 3.96-1.81 1.44-5.03 1.44-2.97 0-5.26-1.11v-3.66q1.88.84 3.18 1.18 1.3.34 2.38.34 1.3 0 1.99-.49.69-.5.69-1.47 0-.55-.31-.98-.3-.42-.89-.81-.59-.4-2.41-1.26-1.7-.8-2.55-1.54-.85-.73-1.36-1.71-.5-.98-.5-2.29 0-2.46 1.67-3.87 1.66-1.41 4.61-1.41 1.45 0 2.76.35 1.32.34 2.75.96l-1.27 3.06q-1.49-.61-2.46-.85t-1.91-.24q-1.11 0-1.71.52-.6.52-.6 1.36 0 .52.24.9.24.39.77.75.53.37 2.5 1.31 2.6 1.24 3.56 2.49.97 1.25.97 3.07Zm16.08 5.15h-2.97l-.52-1.82h-.2q-.62.99-1.77 1.53-1.14.54-2.6.54-2.5 0-3.77-1.34-1.27-1.33-1.27-3.85v-9.25h3.87v8.29q0 1.53.55 2.3.55.77 1.74.77 1.62 0 2.35-1.09.72-1.08.72-3.6v-6.67h3.87v14.19Zm11.99-14.46q.79 0 1.31.11l-.3 3.64q-.47-.13-1.14-.13-1.85 0-2.89.95-1.03.95-1.03 2.67v7.22h-3.87v-14.19h2.93l.57 2.38h.19q.66-1.19 1.78-1.92 1.13-.73 2.45-.73ZM346.06 207q-2.5 0-3.93-1.81h-.2q.2 1.78.2 2.06V213h-3.87v-20.44h3.15l.55 1.84h.17q1.36-2.11 4.03-2.11 2.51 0 3.93 1.94 1.43 1.94 1.43 5.4 0 2.27-.67 3.95-.67 1.67-1.9 2.55-1.23.87-2.89.87Zm-1.14-11.61q-1.44 0-2.1.88-.66.88-.69 2.91v.42q0 2.29.68 3.28.68.99 2.16.99 2.6 0 2.6-4.29 0-2.1-.64-3.14-.64-1.05-2.01-1.05Zm17.72-3.1q.78 0 1.31.11l-.3 3.64q-.47-.13-1.14-.13-1.85 0-2.89.95-1.03.95-1.03 2.67v7.22h-3.87v-14.19h2.93l.57 2.38h.19q.66-1.19 1.78-1.92 1.13-.73 2.45-.73Zm3.72-3.4q0-1.89 2.1-1.89 2.11 0 2.11 1.89 0 .9-.52 1.4-.53.5-1.59.5-2.1 0-2.1-1.9Zm4.03 3.67v14.19h-3.87v-14.19h3.87Zm13.97 9.98q0 2.18-1.52 3.32-1.51 1.14-4.54 1.14-1.55 0-2.64-.21t-2.04-.61v-3.2q1.08.51 2.43.85 1.35.34 2.38.34 2.11 0 2.11-1.22 0-.45-.28-.74-.28-.28-.97-.65-.68-.36-1.82-.84-1.64-.69-2.41-1.27-.77-.58-1.12-1.34-.35-.75-.35-1.86 0-1.89 1.47-2.93 1.47-1.03 4.16-1.03 2.56 0 4.99 1.12l-1.17 2.79q-1.07-.46-1.99-.75-.93-.29-1.9-.29-1.71 0-1.71.93 0 .52.55.9.56.38 2.42 1.13 1.66.67 2.44 1.25.77.59 1.14 1.35.37.76.37 1.82Zm8.9-7.5q-1.23 0-1.93.79-.7.78-.8 2.21h5.43q-.02-1.43-.75-2.21-.72-.79-1.95-.79Zm.54 11.96q-3.42 0-5.35-1.89-1.93-1.89-1.93-5.36 0-3.56 1.78-5.51 1.79-1.95 4.93-1.95 3.01 0 4.69 1.71 1.67 1.72 1.67 4.74v1.88h-9.15q.06 1.65.98 2.58.91.92 2.56.92 1.28 0 2.43-.26 1.14-.27 2.38-.86v3q-1.01.51-2.17.76-1.15.24-2.82.24Zm19.87-7.59v7.34h-3.87v-18.56h10.64v3.22h-6.77v4.79h6.3v3.21h-6.3Zm21.81 7.34h-2.7l-.75-1.93h-.1q-.98 1.23-2.01 1.71-1.04.47-2.7.47-2.05 0-3.22-1.16-1.17-1.17-1.17-3.33 0-2.26 1.58-3.33 1.58-1.08 4.76-1.19l2.47-.08v-.62q0-2.16-2.21-2.16-1.7 0-4 1.03l-1.28-2.61q2.45-1.29 5.43-1.29 2.86 0 4.38 1.25 1.52 1.24 1.52 3.78v9.46Zm-3.84-5.41v-1.17l-1.5.05q-1.69.06-2.51.61-.83.56-.83 1.71 0 1.63 1.88 1.63 1.34 0 2.15-.77.81-.78.81-2.06Zm17.73 1.2q0 2.18-1.51 3.32-1.52 1.14-4.54 1.14-1.55 0-2.64-.21-1.1-.21-2.05-.61v-3.2q1.08.51 2.43.85 1.36.34 2.38.34 2.11 0 2.11-1.22 0-.45-.28-.74-.28-.28-.96-.65-.69-.36-1.83-.84-1.64-.69-2.41-1.27-.77-.58-1.11-1.34-.35-.75-.35-1.86 0-1.89 1.46-2.93 1.47-1.03 4.16-1.03 2.57 0 4.99 1.12l-1.17 2.79q-1.06-.46-1.99-.75-.93-.29-1.89-.29-1.72 0-1.72.93 0 .52.56.9.55.38 2.41 1.13 1.67.67 2.44 1.25.78.59 1.14 1.35.37.76.37 1.82Zm9 1.38q1.02 0 2.44-.45v2.89q-1.45.64-3.55.64-2.33 0-3.39-1.17t-1.06-3.52v-6.85h-1.85v-1.63l2.13-1.3 1.12-2.99h2.47v3.02h3.98v2.9h-3.98v6.85q0 .82.47 1.22.46.39 1.22.39Zm9.21-15.73-.65 12.4h-3.1l-.65-12.4h4.4Zm-4.45 16.74q0-1.06.58-1.61.57-.54 1.66-.54 1.05 0 1.63.55.58.56.58 1.6 0 1.01-.59 1.59-.58.57-1.62.57-1.07 0-1.65-.56-.59-.57-.59-1.6Zm11.89-16.74-.65 12.4h-3.1l-.65-12.4h4.4Zm-4.45 16.74q0-1.06.57-1.61.58-.54 1.67-.54 1.05 0 1.63.55.58.56.58 1.6 0 1.01-.59 1.59-.58.57-1.62.57-1.07 0-1.65-.56-.59-.57-.59-1.6Zm11.89-16.74-.65 12.4h-3.1l-.65-12.4h4.4Zm-4.45 16.74q0-1.06.57-1.61.58-.54 1.67-.54 1.05 0 1.63.55.58.56.58 1.6 0 1.01-.59 1.59-.58.57-1.62.57-1.07 0-1.65-.56-.59-.57-.59-1.6Z"/></svg>